<svg width="42" height="38" viewBox="0 0 42 38" fill="none" xmlns="http://www.w3.org/2000/svg">
<path d="M41.8647 11.0037C41.8412 9.43837 41.5105 7.88858 40.8875 6.42367C40.3472 5.18802 39.522 4.06584 38.4646 3.12881C37.4072 2.19178 36.1409 1.46052 34.7466 0.981738C33.1147 0.438903 31.3908 0.145383 29.6482 0.113675C27.4045 0.0248019 26.6931 0 20.9977 0C15.3022 0 14.5722 1.38591e-07 12.3448 0.113675C10.603 0.145616 8.87987 0.439133 7.24878 0.981738C5.8542 1.46018 4.58768 2.19133 3.53024 3.1284C2.47281 4.06547 1.64774 5.18783 1.10784 6.42367C0.494053 7.86864 0.163548 9.39598 0.130609 10.9397C0.0303198 12.93 0 13.5604 0 18.6075C0 23.6547 -1.7377e-08 24.2996 0.130609 26.2754C0.165593 27.8214 0.494447 29.3467 1.10784 30.7956C1.64865 32.031 2.47432 33.1529 3.53211 34.0896C4.5899 35.0263 5.85655 35.7571 7.25111 36.2354C8.87773 36.8001 10.6012 37.1146 12.3472 37.1655C14.5932 37.2544 15.3045 37.2812 21 37.2812C26.6955 37.2812 27.4255 37.2812 29.6528 37.1655C31.3954 37.1351 33.1195 36.8422 34.7512 36.2995C36.1452 35.8202 37.4112 35.0887 38.4685 34.1517C39.5258 33.2148 40.3513 32.0929 40.8922 30.8576C41.5056 29.4108 41.8344 27.8855 41.8694 26.3374C41.9697 24.3492 42 23.7188 42 18.6696C41.9953 13.6224 41.9953 12.9817 41.8647 11.0037ZM20.9837 28.1521C15.027 28.1521 10.2015 23.8759 10.2015 18.5972C10.2015 13.3186 15.027 9.04232 20.9837 9.04232C23.8433 9.04232 26.5858 10.049 28.6078 11.8409C30.6299 13.6328 31.7659 16.0631 31.7659 18.5972C31.7659 21.1313 30.6299 23.5617 28.6078 25.3535C26.5858 27.1454 23.8433 28.1521 20.9837 28.1521ZM32.195 10.9169C31.8648 10.9172 31.5377 10.8598 31.2325 10.7479C30.9273 10.636 30.6501 10.4719 30.4165 10.265C30.183 10.058 29.9978 9.81229 29.8716 9.54185C29.7453 9.27141 29.6805 8.98156 29.6808 8.6889C29.6808 8.39644 29.7458 8.10685 29.8721 7.83666C29.9984 7.56647 30.1835 7.32097 30.4169 7.11417C30.6502 6.90738 30.9273 6.74334 31.2322 6.63142C31.5371 6.51951 31.8638 6.4619 32.1939 6.4619C32.5239 6.4619 32.8507 6.51951 33.1556 6.63142C33.4605 6.74334 33.7375 6.90738 33.9709 7.11417C34.2042 7.32097 34.3893 7.56647 34.5156 7.83666C34.6419 8.10685 34.7069 8.39644 34.7069 8.6889C34.7069 9.92072 33.5827 10.9169 32.195 10.9169Z" fill="#E9BD8C"/>
</svg>
