<svg width="42" height="38" viewBox="0 0 42 38" fill="none" xmlns="http://www.w3.org/2000/svg">
<path d="M21.0134 3.75191e-06C16.1169 -0.00275264 11.3733 1.51333 7.60278 4.28612C3.83221 7.05891 1.27172 10.9141 0.364028 15.185C-0.543665 19.456 0.258505 23.8743 2.63184 27.6759C5.00517 31.4775 8.80046 34.4234 13.3615 36.0044C13.1777 34.5294 13.0097 32.2623 13.4324 30.6522C13.8156 29.1959 15.8946 21.3855 15.8946 21.3855C15.8946 21.3855 15.2672 20.2693 15.2672 18.6196C15.2672 16.0263 16.9604 14.0923 19.0682 14.0923C20.8585 14.0923 21.7247 15.2853 21.7247 16.7183C21.7247 18.3167 20.5776 20.7074 19.9844 22.9233C19.4909 24.778 21.0344 26.2926 23.095 26.2926C26.8277 26.2926 29.6969 22.7975 29.6969 17.7552C29.6969 13.2931 26.0822 10.1731 20.9241 10.1731C14.9496 10.1731 11.4426 14.1506 11.4426 18.2608C11.4426 19.8639 12.1382 21.5812 13.0045 22.5155C13.0791 22.586 13.1318 22.6724 13.1576 22.7663C13.1834 22.8602 13.1813 22.9585 13.1515 23.0515C12.9914 23.6386 12.637 24.9062 12.5687 25.1648C12.4769 25.505 12.2642 25.5773 11.8652 25.4142C9.24023 24.3307 7.60223 20.9264 7.60223 18.1909C7.60223 12.3121 12.4165 6.91334 21.478 6.91334C28.7624 6.91334 34.4245 11.5199 34.4245 17.6783C34.4245 24.1023 29.8596 29.2728 23.5281 29.2728C21.3992 29.2728 19.399 28.2918 18.7139 27.1314L17.4066 31.5632C16.9315 33.1826 15.6505 35.2121 14.7947 36.4494C17.6822 37.2419 20.7283 37.4718 23.725 37.1234C26.7217 36.775 29.5984 35.8566 32.1585 34.4309C34.7187 33.0051 36.902 31.1056 38.5592 28.8622C40.2165 26.6188 41.3087 24.0842 41.7613 21.4318C42.2138 18.7793 42.016 16.0713 41.1814 13.4929C40.3468 10.9145 38.895 8.52637 36.9252 6.49168C34.9555 4.45699 32.5141 2.82368 29.768 1.70332C27.0219 0.582966 24.0357 0.00196263 21.0134 3.75191e-06Z" fill="#E9BD8C"/>
</svg>
