<svg width="42" height="38" viewBox="0 0 42 38" fill="none" xmlns="http://www.w3.org/2000/svg">
<path d="M21.0063 5.74503e-05C15.4375 0.00501037 10.0984 1.97 6.16026 5.4639C2.22215 8.95781 0.00671177 13.6953 1.1939e-05 18.6369C-0.00420619 22.1554 1.10938 25.5841 3.21 28.5523L3.70774 29.256L1.58603 36.1321L9.53719 34.283L10.3007 34.6873C13.5381 36.3876 17.2316 37.2836 20.9936 37.2812H20.9978C26.5648 37.2743 31.9016 35.3091 35.8384 31.8163C39.7752 28.3235 41.9909 23.5881 41.9999 18.6481C42.0095 16.1995 41.4717 13.7735 40.4174 11.5105C39.3632 9.24763 37.8136 7.19278 35.8583 5.46497C33.9131 3.7276 31.5988 2.34998 29.0494 1.41191C26.5 0.47384 23.7661 -0.00604354 21.0063 5.74503e-05ZM33.3569 26.6434C32.8297 27.9535 30.3072 29.1438 29.0966 29.3047C27.7695 29.5078 26.4072 29.4321 25.1189 29.0839C23.8968 28.748 22.6957 28.3544 21.5209 27.9048C15.1853 25.4793 11.0515 19.8235 10.7309 19.4454C10.4188 19.0711 8.15786 16.406 8.15786 13.6511C8.15786 10.8924 9.78606 9.53745 10.3639 8.97599C10.5761 8.76324 10.8355 8.5916 11.1258 8.47181C11.4161 8.35202 11.7311 8.28665 12.0512 8.27977C12.473 8.27977 12.8906 8.28351 13.2618 8.29849C13.6499 8.31346 14.1687 8.16748 14.6791 9.26046C15.2063 10.3834 16.4718 13.1383 16.6279 13.419C16.7839 13.696 16.8894 14.0254 16.6827 14.3997C16.4718 14.7778 16.3706 15.0061 16.05 15.3355C15.7378 15.6649 15.3877 16.0654 15.1051 16.3199C14.7888 16.5969 14.4597 16.9001 14.8267 17.4616C15.1979 18.0193 16.4633 19.8571 18.3362 21.3432C20.749 23.2521 22.7863 23.8398 23.4148 24.1243C24.0475 24.4013 24.4145 24.3601 24.7857 23.982C25.1527 23.604 26.3633 22.3463 26.7851 21.7886C27.2069 21.2271 27.6245 21.3207 28.2066 21.5041C28.7845 21.695 31.889 23.0463 32.5175 23.327C33.1418 23.604 33.5678 23.7462 33.7281 23.982C33.88 24.2141 33.88 25.3333 33.3569 26.6434Z" fill="#E9BD8C"/>
</svg>
